<?xml version="1.0" encoding="utf-8"?>
<!-- Generator: Adobe Illustrator 23.1.1, SVG Export Plug-In . SVG Version: 6.00 Build 0)  -->
<svg version="1.1" id="Layer_1" xmlns="http://www.w3.org/2000/svg" xmlns:xlink="http://www.w3.org/1999/xlink" x="0px" y="0px"
	 viewBox="0 0 29 34" style="enable-background:new 0 0 29 34;" xml:space="preserve">
<style type="text/css">
	.st0{clip-path:url(#SVGID_2_);fill:#FFFFFF;}
	.st1{clip-path:url(#SVGID_4_);fill:#755DD5;}
</style>
<g>
	<g>
		<defs>
			<path id="SVGID_1_" d="M28.6,4.6l-6.5-3.2C21.6,1.1,21,1.5,21,2v15.5c0,2.6-0.6,4.5-1.9,5.8c-1.2,1.3-2.9,1.9-5,1.9
				c-1.9,0-3.4-0.5-4.5-1.6C8.6,22.5,8,21,8,18.9v-5.1c0-0.6-0.6-0.9-1.1-0.7l-6.5,3.3C0.2,16.5,0,16.8,0,17.1v2.8
				c0,4,1.1,7.2,3.3,9.4c2.2,2.3,5,3.4,8.4,3.4c4.2,0,7.3-1.4,9.3-4.3v2.7c0,0.4,0.3,0.8,0.8,0.8h6.5c0.4,0,0.8-0.3,0.8-0.8V5.3
				C29,5,28.8,4.7,28.6,4.6z"/>
		</defs>
		<clipPath id="SVGID_2_">
			<use xlink:href="#SVGID_1_"  style="overflow:visible;"/>
		</clipPath>
		<rect x="-4.1" y="-2.9" class="st0" width="37.3" height="39.8"/>
	</g>
	<g>
		<defs>
			<path id="SVGID_3_" d="M1.1,12.2l6.5-3.3C7.9,8.8,8,8.5,8,8.3V2c0-0.6-0.6-0.9-1.1-0.7L0.4,4.7C0.2,4.8,0,5.1,0,5.3v6.2
				C0,12.1,0.6,12.5,1.1,12.2"/>
		</defs>
		<clipPath id="SVGID_4_">
			<use xlink:href="#SVGID_3_"  style="overflow:visible;"/>
		</clipPath>
		<rect x="-4.1" y="-2.9" class="st1" width="16.3" height="19.3"/>
	</g>
</g>
</svg>
